# File created by Blade
# Date/Time:  Thu Sep 25 17:33:50 2014
# Frame Rate: 120.000 fps
#------------------------------------------------------
:FULLY-SPECIFIED
:DEGREES
1346
root -7.464639 32.439385 -3.786608 13.042701 8.291543 -5.310893
Spine -10.667848 3.952243 8.123675
Head -11.399616 -8.713326 5.266484
LeftShoulder -4.576012 19.746341 14.306239
LeftArm 59.475584 42.791063 -47.154262
LeftForeArm 28.907573 -0.000000 103.640967
LeftHand -28.903034 -0.000000 33.737110
LeftHandThumb1 -26.253704 0.000000 33.147579
RightShoulder -16.080541 8.062450 -22.570851
RightArm 2.675989 -48.577987 88.603001
RightForeArm -19.594107 -0.000000 110.632892
RightHand 2.271162 0.000000 -37.684832
RightHandThumb1 -24.326973 -0.000000 -32.862282
LeftUpLeg -5.430489 13.462117 2.913619
LeftLeg 10.148501 -0.000000 -0.000000
LeftFoot -29.535780 22.763341 -26.896959
LeftToeBase 3.124871 -0.000000 -0.000000
RightUpLeg -18.291430 -8.456893 13.604885
RightLeg 5.693487 -0.000000 -0.000000
RightFoot -8.753194 -4.642104 -2.512796
RightToeBase 1.810521 -0.000000 -0.000000
1347
root -7.458638 32.437237 -3.769010 13.040668 8.324903 -5.345081
Spine -10.593320 3.891922 8.239628
Head -11.513426 -8.680203 5.262902
LeftShoulder -4.581173 19.729266 14.282340
LeftArm 59.577494 42.752697 -47.065747
LeftForeArm 28.860715 -0.000000 103.703365
LeftHand -29.047524 -0.000000 33.789193
LeftHandThumb1 -26.253704 0.000000 33.147579
RightShoulder -16.085304 8.040783 -22.552048
RightArm 2.880806 -48.525680 88.399822
RightForeArm -19.670236 -0.000000 110.710380
RightHand 2.268302 -0.000000 -37.533394
RightHandThumb1 -24.326973 -0.000000 -32.862282
LeftUpLeg -5.363745 13.540216 2.941732
LeftLeg 10.060377 -0.000000 -0.000000
LeftFoot -29.522205 22.737142 -26.916144
LeftToeBase 3.090353 -0.000000 -0.000000
RightUpLeg -18.352910 -8.314179 13.598404
RightLeg 5.891346 -0.000000 -0.000000
RightFoot -8.787254 -4.858813 -2.707648
RightToeBase 1.708666 -0.000000 -0.000000
1348
root -7.453034 32.435121 -3.750644 13.042821 8.322746 -5.384998
Spine -10.539363 3.838219 8.348749
Head -11.589002 -8.632001 5.247101
LeftShoulder -4.590831 19.784252 14.273353
LeftArm 59.720007 42.681161 -46.974296
LeftForeArm 28.815019 -0.000000 103.727618
LeftHand -29.130909 0.000000 33.792821
LeftHandThumb1 -26.253704 0.000000 33.147579
RightShoulder -16.090680 8.012368 -22.548727
RightArm 3.257218 -48.587982 88.011976
RightForeArm -19.577330 -0.000000 110.745995
RightHand 2.316334 -0.000000 -37.720067
RightHandThumb1 -24.326973 -0.000000 -32.862282
LeftUpLeg -5.284653 13.651250 2.969102
LeftLeg 9.950239 -0.000000 -0.000000
LeftFoot -29.511598 22.694000 -26.969539
LeftToeBase 3.083933 -0.000000 -0.000000
RightUpLeg -18.408819 -8.101435 13.581409
RightLeg 6.087519 -0.000000 -0.000000
RightFoot -8.828637 -5.101454 -2.851139
RightToeBase 1.599925 -0.000000 -0.000000
1349
root -7.445008 32.432894 -3.732791 13.044841 8.283265 -5.420862
Spine -10.488555 3.823154 8.446708
Head -11.636413 -8.620727 5.239597
LeftShoulder -4.564114 19.813431 14.267201
LeftArm 59.811538 42.610089 -46.925807
LeftForeArm 28.745955 0.000000 103.760610
LeftHand -29.143392 -0.000000 33.830875
LeftHandThumb1 -26.253704 0.000000 33.147579
RightShoulder -16.025200 8.045474 -22.569442
RightArm 3.313945 -48.525277 87.989695
RightForeArm -19.815188 -0.000000 110.800116
RightHand 2.228120 0.000000 -37.904787
RightHandThumb1 -24.326973 -0.000000 -32.862282
LeftUpLeg -5.183522 13.758415 2.976417
LeftLeg 9.794729 -0.000000 -0.000000
LeftFoot -29.523015 22.716894 -27.037926
LeftToeBase 3.144468 -0.000000 -0.000000
RightUpLeg -18.466375 -7.884824 13.550570
RightLeg 6.292521 -0.000000 -0.000000
RightFoot -8.896615 -5.287964 -2.938654
RightToeBase 1.572897 -0.000000 -0.000000
1350
root -7.441440 32.431313 -3.713297 13.045152 8.238950 -5.467714
Spine -10.451153 3.844917 8.532989
Head -11.627872 -8.592870 5.284891
LeftShoulder -4.492663 19.798211 14.283549
LeftArm 59.858744 42.551889 -46.886465
LeftForeArm 28.665276 -0.000000 103.790027
LeftHand -29.073836 0.000000 34.014195
LeftHandThumb1 -26.253704 0.000000 33.147579
RightShoulder -16.006511 8.078106 -22.586732
RightArm 3.325471 -48.473836 87.970228
RightForeArm -20.093299 -0.000000 110.887241
RightHand 2.124424 -0.000000 -37.794810
RightHandThumb1 -24.326973 -0.000000 -32.862282
LeftUpLeg -5.068709 13.822276 3.008907
LeftLeg 9.625328 -0.000000 -0.000000
LeftFoot -29.510853 22.794747 -27.060207
LeftToeBase 3.186466 -0.000000 -0.000000
RightUpLeg -18.509757 -7.697018 13.544834
RightLeg 6.474922 -0.000000 -0.000000
RightFoot -8.911287 -5.466595 -3.170070
RightToeBase 1.452467 -0.000000 -0.000000
1351
root -7.435232 32.428225 -3.695573 13.049396 8.190081 -5.489293
Spine -10.413254 3.848348 8.580397
Head -11.657786 -8.563761 5.332883
LeftShoulder -4.422976 19.890718 14.308885
LeftArm 60.018750 42.424950 -46.774159
LeftForeArm 28.644272 0.000000 103.861061
LeftHand -29.086771 -0.000000 34.060892
LeftHandThumb1 -26.253704 0.000000 33.147579
RightShoulder -16.004320 8.108524 -22.593259
RightArm 3.421688 -48.461627 87.870032
RightForeArm -20.271205 -0.000000 110.951562
RightHand 2.179392 0.000000 -37.979981
RightHandThumb1 -24.326973 -0.000000 -32.862282
LeftUpLeg -4.950111 13.852031 3.016914
LeftLeg 9.456851 -0.000000 -0.000000
LeftFoot -29.531626 22.800050 -27.177824
LeftToeBase 3.186525 -0.000000 -0.000000
RightUpLeg -18.570647 -7.479611 13.510933
RightLeg 6.679991 -0.000000 -0.000000
RightFoot -9.004058 -5.675256 -3.125308
RightToeBase 1.403889 -0.000000 -0.000000
1352
root -7.427744 32.425603 -3.680333 13.073289 8.135279 -5.535485
Spine -10.405055 3.850579 8.690946
Head -11.660275 -8.532600 5.311142
LeftShoulder -4.407597 19.825536 14.288309
LeftArm 60.104845 42.423645 -46.701949
LeftForeArm 28.730783 -0.000000 103.911371
LeftHand -29.243808 0.000000 34.267154
LeftHandThumb1 -26.253704 0.000000 33.147579
RightShoulder -16.000078 8.185047 -22.674156
RightArm 3.420331 -48.454597 87.876275
RightForeArm -20.362025 -0.000000 111.020459
RightHand 2.147661 -0.000000 -38.073593
RightHandThumb1 -24.326973 -0.000000 -32.862282
LeftUpLeg -4.865638 13.876371 3.034416
LeftLeg 9.299560 -0.000000 -0.000000
LeftFoot -29.565385 22.873039 -27.253810
LeftToeBase 3.171275 -0.000000 -0.000000
RightUpLeg -18.653272 -7.254429 13.485453
RightLeg 6.916346 -0.000000 -0.000000
RightFoot -9.087094 -5.961960 -3.232252
RightToeBase 1.521157 -0.000000 -0.000000
1353
root -7.427649 32.422898 -3.660561 13.072526 8.098297 -5.598467
Spine -10.380627 3.814986 8.782219
Head -11.643281 -8.504205 5.409254
LeftShoulder -4.394603 19.831365 14.294737
LeftArm 60.206800 42.379264 -46.657517
LeftForeArm 28.867436 -0.000000 103.974603
LeftHand -29.275021 -0.000000 34.328855
LeftHandThumb1 -26.253704 0.000000 33.147579
RightShoulder -15.952917 8.214942 -22.658069
RightArm 3.476622 -48.401299 87.781579
RightForeArm -20.387921 -0.000000 111.146930
RightHand 2.177427 -0.000000 -38.114122
RightHandThumb1 -24.326973 -0.000000 -32.862282
LeftUpLeg -4.741938 13.881813 3.097827
LeftLeg 9.120063 -0.000000 -0.000000
LeftFoot -29.584106 22.930378 -27.310306
LeftToeBase 3.250366 -0.000000 -0.000000
RightUpLeg -18.703229 -7.130960 13.525299
RightLeg 7.091148 -0.000000 -0.000000
RightFoot -9.106613 -6.083786 -3.392744
RightToeBase 1.427520 -0.000000 -0.000000
1354
root -7.421513 32.420014 -3.644885 13.091451 8.033664 -5.636550
Spine -10.373638 3.810767 8.858313
Head -11.657439 -8.522495 5.472287
LeftShoulder -4.381634 19.826131 14.301320
LeftArm 60.382043 42.335581 -46.525285
LeftForeArm 28.955791 -0.000000 104.040302
LeftHand -29.412879 -0.000000 34.679010
LeftHandThumb1 -26.253704 0.000000 33.147579
RightShoulder -15.919719 8.225954 -22.668805
RightArm 3.493646 -48.319926 87.771146
RightForeArm -20.532399 -0.000000 111.264724
RightHand 2.206522 -0.000000 -38.213218
RightHandThumb1 -24.326973 -0.000000 -32.862282
LeftUpLeg -4.638677 13.838846 3.115716
LeftLeg 8.947502 -0.000000 -0.000000
LeftFoot -29.628813 23.031415 -27.423866
LeftToeBase 3.215368 -0.000000 -0.000000
RightUpLeg -18.807298 -7.038856 13.562259
RightLeg 7.313487 -0.000000 -0.000000
RightFoot -9.187178 -6.215234 -3.214208
RightToeBase 1.355714 -0.000000 -0.000000
1355
root -7.416995 32.417535 -3.630038 13.124491 7.979078 -5.668852
Spine -10.374149 3.819854 8.904937
Head -11.671221 -8.449816 5.521536
LeftShoulder -4.316709 19.772434 14.338667
LeftArm 60.459947 42.320223 -46.500162
LeftForeArm 29.131655 -0.000000 104.133431
LeftHand -29.437491 -0.000000 34.814124
LeftHandThumb1 -26.253704 0.000000 33.147579
RightShoulder -16.023198 8.260155 -22.659361
RightArm 3.588947 -48.348614 87.661286
RightForeArm -20.625310 -0.000000 111.368023
RightHand 2.161826 -0.000000 -38.216663
RightHandThumb1 -24.326973 -0.000000 -32.862282
LeftUpLeg -4.565590 13.795372 3.131515
LeftLeg 8.806599 -0.000000 -0.000000
LeftFoot -29.670109 23.122036 -27.518894
LeftToeBase 3.219882 -0.000000 -0.000000
RightUpLeg -18.900465 -6.856214 13.562686
RightLeg 7.490502 -0.000000 -0.000000
RightFoot -9.209709 -6.372950 -3.291582
RightToeBase 1.263850 -0.000000 -0.000000
1356
root -7.411845 32.414454 -3.617047 13.158647 7.917729 -5.686444
Spine -10.360458 3.759289 8.949836
Head -11.676145 -8.361600 5.648454
LeftShoulder -4.356410 19.750032 14.323570
LeftArm 60.624966 42.275264 -46.377932
LeftForeArm 29.217425 0.000000 104.237008
LeftHand -29.484611 0.000000 34.929638
LeftHandThumb1 -26.253704 0.000000 33.147579
RightShoulder -16.010202 8.290169 -22.641445
RightArm 3.687134 -48.346995 87.567987
RightForeArm -20.697307 -0.000000 111.494201
RightHand 2.139915 0.000000 -38.407637
RightHandThumb1 -24.326973 -0.000000 -32.862282
LeftUpLeg -4.495428 13.747753 3.133391
LeftLeg 8.670636 -0.000000 -0.000000
LeftFoot -29.705306 23.170501 -27.672694
LeftToeBase 3.125368 -0.000000 -0.000000
RightUpLeg -18.991055 -6.612062 13.504603
RightLeg 7.700252 -0.000000 -0.000000
RightFoot -9.277934 -6.531168 -3.448252
RightToeBase 1.241936 -0.000000 -0.000000
1357
root -7.409501 32.412446 -3.606094 13.223740 7.859748 -5.709106
Spine -10.394626 3.698646 8.995266
Head -11.683482 -8.261137 5.749268
LeftShoulder -4.427889 19.724167 14.287663
LeftArm 60.852982 42.231129 -46.186655
LeftForeArm 29.344662 -0.000000 104.309823
LeftHand -29.715491 -0.000000 35.170666
LeftHandThumb1 -26.253704 0.000000 33.147579
RightShoulder -15.996329 8.295463 -22.618459
RightArm 3.755213 -48.318667 87.512358
RightForeArm -20.716309 -0.000000 111.641397
RightHand 2.077758 0.000000 -38.589214
RightHandThumb1 -24.326973 -0.000000 -32.862282
LeftUpLeg -4.488613 13.717681 3.137676
LeftLeg 8.589984 -0.000000 -0.000000
LeftFoot -29.735789 23.229463 -27.725551
LeftToeBase 3.115358 -0.000000 -0.000000
RightUpLeg -19.134927 -6.459863 13.495524
RightLeg 7.929304 -0.000000 -0.000000
RightFoot -9.366732 -6.612194 -3.420476
RightToeBase 1.216557 -0.000000 -0.000000
1358
root -7.407204 32.409858 -3.595055 13.265868 7.809795 -5.732107
Spine -10.408187 3.656202 9.035763
Head -11.701136 -8.236468 5.834770
LeftShoulder -4.432032 19.756141 14.267963
LeftArm 61.003998 42.147909 -46.172518
LeftForeArm 29.394793 -0.000000 104.376884
LeftHand -29.598864 0.000000 34.974397
LeftHandThumb1 -26.253704 0.000000 33.147579
RightShoulder -15.983831 8.273816 -22.581665
RightArm 3.769635 -48.202821 87.517267
RightForeArm -20.721466 -0.000000 111.795028
RightHand 2.216296 0.000000 -38.610298
RightHandThumb1 -24.326973 -0.000000 -32.862282
LeftUpLeg -4.468848 13.685044 3.153285
LeftLeg 8.530479 -0.000000 -0.000000
LeftFoot -29.771599 23.214512 -27.861860
LeftToeBase 3.024971 -0.000000 -0.000000
RightUpLeg -19.254976 -6.370644 13.507133
RightLeg 8.145752 -0.000000 -0.000000
RightFoot -9.451923 -6.697202 -3.469335
RightToeBase 1.215038 -0.000000 -0.000000
